HIERARCHY
ROOT joint_Root
{
	OFFSET 0.0 0.0 0.0
	CHANNELS 6 Xposition Yposition Zposition Zrotation Xrotation Yrotation 
	JOINT Hips
	{
		OFFSET -17.1583 93.1646 452.98
		CHANNELS 6 Xposition Yposition Zposition Zrotation Xrotation Yrotation 
		JOINT Spine
		{
			OFFSET 15.7357 0.0 0.0
			CHANNELS 6 Xposition Yposition Zposition Zrotation Xrotation Yrotation 
			JOINT Chest
			{
				OFFSET 8.98455 -0.406207 0.0
				CHANNELS 6 Xposition Yposition Zposition Zrotation Xrotation Yrotation 
				JOINT Neck
				{
					OFFSET 16.3773 0.0 0.0
					CHANNELS 6 Xposition Yposition Zposition Zrotation Xrotation Yrotation 
					JOINT Head
					{
						OFFSET 6.45672 0.0 0.0
						CHANNELS 6 Xposition Yposition Zposition Zrotation Xrotation Yrotation 
						End Site
						{
							OFFSET 0.0 0.0 0.0
						}
					}
				}
				JOINT Shoulder_L
				{
					OFFSET 12.9942 -0.242716 4.98039
					CHANNELS 6 Xposition Yposition Zposition Zrotation Xrotation Yrotation 
					JOINT UpperArm_L
					{
						OFFSET 5.34809 0.0 0.0
						CHANNELS 6 Xposition Yposition Zposition Zrotation Xrotation Yrotation 
						JOINT LowerArm_L
						{
							OFFSET 24.3286 1.87007e-05 0.0
							CHANNELS 6 Xposition Yposition Zposition Zrotation Xrotation Yrotation 
							JOINT Hand_L
							{
								OFFSET 22.2916 0.0 0.0
								CHANNELS 6 Xposition Yposition Zposition Zrotation Xrotation Yrotation 
								End Site
								{
									OFFSET 0.0 0.0 0.0
								}
							}
						}
					}
				}
				JOINT Shoulder_R
				{
					OFFSET 12.9945 -0.242716 -4.98039
					CHANNELS 6 Xposition Yposition Zposition Zrotation Xrotation Yrotation 
					JOINT UpperArm_R
					{
						OFFSET -5.34813 0.0 0.0
						CHANNELS 6 Xposition Yposition Zposition Zrotation Xrotation Yrotation 
						JOINT LowerArm_R
						{
							OFFSET -24.3289 0.000322201 0.0
							CHANNELS 6 Xposition Yposition Zposition Zrotation Xrotation Yrotation 
							JOINT Hand_R
							{
								OFFSET -22.2915 -0.000108084 0.0
								CHANNELS 6 Xposition Yposition Zposition Zrotation Xrotation Yrotation 
								End Site
								{
									OFFSET 0.0 0.0 0.0
								}
							}
						}
					}
				}
			}
		}
		JOINT UpperLeg_L
		{
			OFFSET -2.19248 -6.46944 0.0
			CHANNELS 6 Xposition Yposition Zposition Zrotation Xrotation Yrotation 
			JOINT LowerLeg_L
			{
				OFFSET 39.0811 0.0 -1.23785e-05
				CHANNELS 6 Xposition Yposition Zposition Zrotation Xrotation Yrotation 
				JOINT Foot_L
				{
					OFFSET 40.9854 0.0 -1.26872e-05
					CHANNELS 6 Xposition Yposition Zposition Zrotation Xrotation Yrotation 
					JOINT Toes_L
					{
						OFFSET 11.7543 0.0 0.0
						CHANNELS 6 Xposition Yposition Zposition Zrotation Xrotation Yrotation 
						End Site
						{
							OFFSET 0.0 0.0 0.0
						}
					}
				}
			}
		}
		JOINT UpperLeg_R
		{
			OFFSET -2.19251 6.46944 0.0
			CHANNELS 6 Xposition Yposition Zposition Zrotation Xrotation Yrotation 
			JOINT LowerLeg_R
			{
				OFFSET -39.0811 -0.00228153 -0.0401928
				CHANNELS 6 Xposition Yposition Zposition Zrotation Xrotation Yrotation 
				JOINT Foot_R
				{
					OFFSET -40.9854 0.0 0.0
					CHANNELS 6 Xposition Yposition Zposition Zrotation Xrotation Yrotation 
					JOINT Toes_R
					{
						OFFSET -11.7543 0.0 0.0
						CHANNELS 6 Xposition Yposition Zposition Zrotation Xrotation Yrotation 
						End Site
						{
							OFFSET 0.0 0.0 0.0
						}
					}
				}
			}
		}
	}
}
MOTION
Frames:	6
Frame Time:	0.0333333
0.000000 0.000000 0.000000 0.000000 0.000000 -0.000000 -3.239670 92.158900 -2.126120 85.489600 1.334450 6.547720 15.735700 0.000005 -0.000001 86.084800 86.168400 -84.073200 8.984550 -0.406207 -0.000000 -0.105814 -0.661232 4.020150 16.377300 -0.000001 -0.000001 8.978790 2.557010 -2.924920 6.456720 -0.000001 -0.000000 -4.517670 1.856440 0.906975 12.994200 -0.242716 4.980390 -93.526300 9.840250 -70.172100 5.348090 -0.000007 -0.000001 -72.059800 21.249000 1.478480 24.328600 0.000019 0.000005 12.699900 27.746700 -25.829700 22.291600 -0.000001 0.000005 -7.137760 5.073570 5.714050 12.994500 -0.242716 -4.980390 87.196400 7.514740 -69.471300 -5.348130 -0.000001 -0.000004 -68.813700 28.451900 -3.891630 -24.328900 0.000322 -0.000009 1.406810 5.098590 -15.458600 -22.291500 -0.000108 -0.000004 -1.861950 5.310480 -0.223216 -2.192480 -6.469440 -0.000000 -175.263000 4.217840 -1.893400 39.081100 -0.000007 -0.000012 0.346741 -0.677502 27.103800 40.985400 -0.000006 -0.000013 0.306920 1.650890 -74.477000 11.754300 -0.000000 0.000003 -0.000315 0.172762 -9.569380 -2.192510 6.469440 -0.000001 -172.119000 11.615700 -175.454000 -39.081100 -0.002282 -0.040193 0.132122 -0.456305 15.762000 -40.985400 0.000008 0.000006 5.717700 1.679040 -70.466600 -11.754300 -0.000006 -0.000006 -0.008402 0.258954 -6.055860
0.000000 0.000000 0.000000 0.000000 0.000000 -0.000000 -3.257720 92.176900 -2.180300 85.488500 1.286600 6.397510 15.735700 0.000005 -0.000001 86.181700 86.161100 -84.134300 8.984550 -0.406207 -0.000000 -0.090231 -0.651462 4.091840 16.377300 -0.000001 -0.000001 8.733290 2.541070 -3.000230 6.456720 -0.000001 -0.000000 -4.687720 1.804880 0.509698 12.994200 -0.242716 4.980390 -93.583300 9.991390 -70.154000 5.348090 -0.000007 -0.000001 -71.533700 19.496200 1.800020 24.328600 0.000019 0.000005 13.405200 26.439900 -28.158600 22.291600 -0.000001 0.000005 -8.543560 5.050220 6.233050 12.994500 -0.242716 -4.980390 87.230200 7.415470 -69.451000 -5.348130 -0.000001 -0.000004 -68.807700 28.450000 -3.956110 -24.328900 0.000322 -0.000009 1.392480 5.049710 -15.449400 -22.291500 -0.000108 -0.000004 -1.805450 5.310470 -0.223146 -2.192480 -6.469440 -0.000000 -175.227000 4.145830 -2.055470 39.081100 -0.000007 -0.000012 0.341628 -0.669651 27.029500 40.985400 -0.000006 -0.000013 0.291860 1.652910 -74.354100 11.754300 -0.000000 0.000003 -0.000301 0.172553 -9.577890 -2.192510 6.469440 -0.000001 -172.075000 11.556900 -175.590000 -39.081100 -0.002282 -0.040193 0.128840 -0.448075 15.648300 -40.985400 0.000008 0.000006 5.733930 1.710970 -70.364800 -11.754300 -0.000006 -0.000006 -0.008372 0.258712 -6.065730
0.000000 0.000000 0.000000 0.000000 0.000000 -0.000000 -3.295740 92.194600 -2.253440 85.504900 1.288820 6.173200 15.735700 0.000005 -0.000001 86.617200 86.174100 -84.554200 8.984550 -0.406207 -0.000000 -0.113463 -0.593177 4.122840 16.377300 -0.000001 -0.000001 8.385990 2.450210 -3.105410 6.456720 -0.000001 -0.000000 -4.879500 1.681790 0.019968 12.994200 -0.242716 4.980390 -93.635200 10.087000 -70.062600 5.348090 -0.000007 -0.000001 -70.740000 16.644100 2.020530 24.328600 0.000019 0.000005 14.937100 25.590200 -31.701000 22.291600 -0.000001 0.000005 -10.936100 5.059920 6.016850 12.994500 -0.242716 -4.980390 87.256600 7.348420 -69.462000 -5.348130 -0.000001 -0.000004 -68.849500 28.294100 -3.925690 -24.328900 0.000322 -0.000009 1.396760 5.058590 -15.468800 -22.291500 -0.000108 -0.000004 -1.826030 5.311970 -0.265882 -2.192480 -6.469440 -0.000000 -175.199000 4.168270 -2.292060 39.081100 -0.000007 -0.000012 0.341114 -0.670652 26.960000 40.985400 -0.000006 -0.000013 0.259636 1.663600 -74.316700 11.754300 -0.000000 0.000003 -0.000365 0.173564 -9.536790 -2.192510 6.469440 -0.000001 -171.993000 11.453600 -175.828000 -39.081100 -0.002282 -0.040193 0.127919 -0.447654 15.552900 -40.985400 0.000008 0.000006 5.747290 1.604820 -70.301700 -11.754300 -0.000006 -0.000006 -0.008531 0.259980 -6.013950
0.000000 0.000000 0.000000 0.000000 0.000000 -0.000000 -3.343640 92.226400 -2.342920 85.495800 1.294390 5.920900 15.735700 0.000005 -0.000001 87.371900 86.178500 -85.280800 8.984550 -0.406207 -0.000000 -0.118599 -0.494164 4.178980 16.377300 -0.000001 -0.000001 8.021770 2.304230 -3.283710 6.456720 -0.000001 -0.000000 -5.487830 1.453330 -0.795859 12.994200 -0.242716 4.980390 -93.673900 10.088900 -69.870000 5.348090 -0.000007 -0.000001 -69.692300 13.566700 2.131530 24.328600 0.000019 0.000005 16.568000 23.963000 -36.223500 22.291600 -0.000001 0.000005 -13.204200 5.042540 6.404150 12.994500 -0.242716 -4.980390 87.292500 7.236700 -69.423300 -5.348130 -0.000001 -0.000004 -68.917400 28.298400 -3.916290 -24.328900 0.000322 -0.000009 1.378110 4.955730 -15.572800 -22.291500 -0.000108 -0.000004 -1.808920 5.311520 -0.253009 -2.192480 -6.469440 -0.000000 -175.134000 4.166680 -2.554420 39.081100 -0.000007 -0.000012 0.337033 -0.666137 26.837900 40.985400 -0.000006 -0.000013 0.214834 1.654960 -74.229800 11.754300 -0.000000 0.000003 -0.000320 0.172848 -9.565900 -2.192510 6.469440 -0.000001 -171.889000 11.399300 -176.021000 -39.081100 -0.002282 -0.040193 0.123219 -0.438195 15.301600 -40.985400 0.000008 0.000006 5.778280 1.626570 -70.186300 -11.754300 -0.000006 -0.000006 -0.008421 0.259103 -6.049770
0.000000 0.000000 0.000000 0.000000 0.000000 -0.000000 -3.413870 92.258300 -2.455770 85.509200 1.397480 5.592180 15.735700 0.000005 -0.000001 88.155100 86.201400 -86.032500 8.984550 -0.406207 -0.000000 -0.162064 -0.391290 4.242030 16.377300 -0.000001 -0.000001 7.420680 2.067060 -3.601910 6.456720 -0.000001 -0.000000 -6.069920 1.116030 -2.085780 12.994200 -0.242716 4.980390 -93.651200 9.936330 -69.705400 5.348090 -0.000007 -0.000001 -68.584900 9.688070 2.209120 24.328600 0.000019 0.000005 19.140800 22.615200 -42.066700 22.291600 -0.000001 0.000005 -14.751100 5.028520 6.708840 12.994500 -0.242716 -4.980390 87.305500 7.195840 -69.408400 -5.348130 -0.000001 -0.000004 -68.899100 28.296700 -3.898600 -24.328900 0.000322 -0.000009 1.388370 4.967250 -15.648600 -22.291500 -0.000108 -0.000004 -1.808040 5.311020 -0.238678 -2.192480 -6.469440 -0.000000 -175.075000 4.228530 -2.932980 39.081100 -0.000007 -0.000012 0.331671 -0.658802 26.723500 40.985400 -0.000006 -0.000013 0.162727 1.676570 -74.136000 11.754300 -0.000000 0.000003 -0.000448 0.174854 -9.484420 -2.192510 6.469440 -0.000001 -171.803000 11.452300 -176.374000 -39.081100 -0.002282 -0.040193 0.117830 -0.422972 15.147300 -40.985400 0.000008 0.000006 5.646400 1.628520 -70.010000 -11.754300 -0.000006 -0.000006 -0.008407 0.258989 -6.054420
0.000000 0.000000 0.000000 0.000000 0.000000 -0.000000 -3.487820 92.289400 -2.550490 85.508200 1.459830 5.296070 15.735700 0.000005 -0.000001 89.123300 86.228600 -86.940600 8.984550 -0.406207 -0.000000 -0.215283 -0.267321 4.362340 16.377300 -0.000001 -0.000001 6.850340 1.879990 -4.142570 6.456720 -0.000001 -0.000000 -6.738360 0.733137 -3.796100 12.994200 -0.242716 4.980390 -93.631600 9.757540 -69.469600 5.348090 -0.000007 -0.000001 -67.526600 4.757960 2.215740 24.328600 0.000019 0.000005 22.870400 21.514500 -48.992400 22.291600 -0.000001 0.000005 -15.044600 4.992070 7.483890 12.994500 -0.242716 -4.980390 87.351400 7.113020 -69.515000 -5.348130 -0.000001 -0.000004 -68.890300 28.347600 -3.838210 -24.328900 0.000322 -0.000009 1.361620 4.859550 -15.684800 -22.291500 -0.000108 -0.000004 -1.855010 5.312010 -0.267184 -2.192480 -6.469440 -0.000000 -174.976000 4.119880 -3.263320 39.081100 -0.000007 -0.000012 0.328204 -0.655486 26.598000 40.985400 -0.000006 -0.000013 0.134604 1.809250 -73.988000 11.754300 -0.000000 0.000003 -0.000368 0.173612 -9.534850 -2.192510 6.469440 -0.000001 -171.722000 11.483400 -176.703000 -39.081100 -0.002282 -0.040193 0.111309 -0.401876 15.039500 -40.985400 0.000008 0.000006 5.379460 1.704930 -69.847900 -11.754300 -0.000006 -0.000006 -0.008445 0.259291 -6.042110
